<svg width="400" height="400" viewBox="0 0 400 400" fill="none" xmlns="http://www.w3.org/2000/svg">
<g clip-path="url(#clip0_577_218)">
<circle cx="200" cy="200" r="200" fill="#5421DC"/>
<g clip-path="url(#clip1_577_218)">
<path d="M211.07 190.104C207.346 179.708 207.55 169.08 201.85 159.36C195.402 148.352 185.69 138.62 181.222 126.54C172.038 101.7 211.59 96.668 216.498 75.752H252.13C256.87 87.672 249.918 92.452 245.45 102.524C239.638 115.628 250.698 125.088 259.362 133.948C259.57 133.948 259.678 133.948 259.886 133.948C253.582 120.716 253.238 112.112 265.018 102.456C274.638 94.572 287.882 89.02 290.434 75.752H317.946C313.41 96.568 275.786 101.28 284.07 125.976C287.918 137.452 295.87 147.248 301.37 157.904C306.946 168.704 306.71 180.052 313.834 190.04C303.59 190.04 293.342 190.04 283.098 190.04C269.018 179.192 259.802 163.968 246.598 151.98C239.266 145.324 231.682 138.928 224.594 132.004C219.17 126.704 211.618 119.94 210.53 111.988C210.242 111.988 210.102 111.988 209.814 111.992C202.238 123.992 219.062 142.736 225.042 152.032C229.066 158.288 233.106 164.708 234.514 172.108C235.762 178.672 236.762 183.936 239.882 190.068C230.278 190.076 220.67 190.088 211.066 190.096L211.07 190.104Z" fill="white"/>
<path d="M112.42 104.232C105.884 108.472 97.6963 113.284 96.5283 121.74C95.4803 129.324 99.7603 136.84 103.072 143.336C111.592 143.308 120.108 143.276 128.628 143.236C118.836 133.784 99.5443 118.48 113.132 104.228C112.848 104.228 112.708 104.228 112.424 104.228L112.42 104.232ZM78.8083 190.2C84.7283 178.084 88.3963 169.82 82.6043 157.028C78.2003 147.3 70.6323 138.072 69.2483 127.264C67.6723 114.968 78.3003 108.564 87.6843 103.16C101.336 95.296 118.352 89.784 126.84 75.752H161.944C164.76 97.368 129.34 104.104 146.3 126.788C154.312 137.508 165.04 146.036 174.344 155.56C184.772 166.232 189.024 177.956 197.084 190.12C185.528 190.132 173.976 190.144 162.42 190.156C158.72 182.56 156.548 174.508 151.94 167.42C139.38 167.428 126.824 167.432 114.264 167.436C114.744 175.656 111.128 182.752 107.956 190.196C98.2403 190.196 88.5203 190.2 78.8043 190.196L78.8083 190.2Z" fill="white"/>
<path d="M239.105 262.248C243.713 262.304 248.317 262.36 252.925 262.412C265.661 262.784 275.693 254.824 283.345 245.62C291.861 235.38 286.621 229.444 274.581 229.484C269.937 229.492 265.289 229.504 260.645 229.512C255.261 241.56 245.933 251.052 239.109 262.248H239.105ZM217.321 324.248C215.325 304.48 193.433 285.928 200.533 265.548C203.721 256.396 210.721 248.892 215.849 240.836C223.053 229.52 223.749 220.812 219.173 208.108C238.005 208.056 256.837 208.004 275.665 207.96C295.985 207.9 343.405 215.012 319.449 244.048C309.285 256.368 295.961 268.26 280.833 274.096C280.821 274.372 280.817 274.508 280.817 274.78C291.841 292.876 309.197 305.912 319.913 324.248H285.477C276.429 308.08 261.729 296.184 250.125 281.952C245.657 281.896 241.185 281.832 236.717 281.772C241.029 296.224 250.193 308.928 251.193 324.248H217.317H217.321Z" fill="white"/>
<path d="M91.049 324.248C87.541 302.348 59.345 287.456 64.913 263.884C66.869 255.604 71.585 248.344 74.877 240.592C79.385 229.976 79.125 219.724 80.577 208.424C92.181 208.416 103.789 208.4 115.393 208.38C114.865 216.88 115.249 226.088 112.513 234.228C109.537 243.08 104.193 251.068 100.489 259.628C120.601 243.024 141.273 229.692 156.833 208.284C169.661 208.248 182.489 208.212 195.317 208.176C181.553 232.376 155.905 244.644 134.813 261.336C139.637 274.844 152.133 284.072 163.005 292.584C175.529 302.392 188.845 311.588 198.697 324.244H160.817C144.433 301.348 113.633 292.372 98.225 268.628C95.937 289.344 121.197 304.26 124.153 324.244H91.045L91.049 324.248Z" fill="white"/>
</g>
</g>
<defs>
<clipPath id="clip0_577_218">
<rect width="400" height="400" fill="white"/>
</clipPath>
<clipPath id="clip1_577_218">
<rect width="290.592" height="248.496" fill="white" transform="translate(46.7051 75.752)"/>
</clipPath>
</defs>
</svg>
