<svg width="100" height="100" viewBox="0 0 100 100" fill="none" xmlns="http://www.w3.org/2000/svg">
<g clip-path="url(#clip0_552_173)">
<circle cx="50" cy="50" r="50" fill="#5421DC"/>
<path d="M53.4121 47.6471V19.1859H62.0098L71.2003 35.1106H71.3274V19.1859H78.1039V47.6471H70.5227L60.358 29.9012H60.1886V47.6471H53.4121Z" fill="white"/>
<path d="M35.3133 27.4447L32.3063 36.8894H38.4898L35.4827 27.4447H35.3133ZM21.8027 47.6471L31.7557 19.1859H40.2686L50.1369 47.6471H42.0051L40.0992 42.0141H30.7816L29.0027 47.6471H21.8027Z" fill="white"/>
<path d="M61.4313 65.6519H64.4924C67.3811 65.6519 68.5021 64.2966 68.5021 61.6283C68.5021 58.9601 67.338 57.7742 64.3631 57.7742H61.4313V65.6519ZM53.4121 80.8142V52.353H65.5703C72.8997 52.353 76.5644 55.106 76.5644 61.2471C76.5644 65.1436 74.7967 67.1342 71.7787 68.4048V68.5742L78.2459 80.8142H69.7955L64.5356 70.4377H61.5176V80.8142H53.4121Z" fill="white"/>
<path d="M22.9707 80.8142V52.353H31.0762V65.4401L40.1732 52.353H48.3649L38.8798 65.7789L48.9685 80.8142H39.9146L31.0762 67.7271V80.8142H22.9707Z" fill="white"/>
</g>
<defs>
<clipPath id="clip0_552_173">
<rect width="100" height="100" fill="white"/>
</clipPath>
</defs>
</svg>
